<svg aria-hidden="true" style="width:0;height:0;position:absolute;overflow:hidden" xmlns="http://www.w3.org/2000/svg"><defs><symbol id="icon-close" viewBox="0 0 32 32"><path d="M18.088 16 30.37 3.719a1.481 1.481 0 0 0-2.089-2.089L16 13.911 3.719 1.615a1.487 1.487 0 1 0-2.104 2.104L13.911 16 1.615 28.282a1.484 1.484 0 0 0 .423 2.505 1.472 1.472 0 0 0 1.186-.046c.184-.089.347-.215.48-.37L16 18.09l12.281 12.281a1.477 1.477 0 0 0 2.011-.078 1.485 1.485 0 0 0 .078-2.011L18.088 16z"/></symbol></defs></svg>