<svg aria-hidden="true" style="position:absolute;width:0;height:0;overflow:hidden" xmlns="http://www.w3.org/2000/svg">


  <defs>
    <symbol id="icon-vector1" viewBox="0 0 14 32">
      <path  d="M13.513 15.879H9.337v15.393H3.01V15.879H.001v-5.41H3.01V6.968C3.01 4.465 4.192.544 9.394.544l4.687.02v5.251H10.68c-.558 0-1.342.28-1.342 1.475v3.184h4.729l-.553 5.405z"/>

    </symbol>
    <symbol id="icon-telegram" viewBox="0 0 40 32">
      <path d="m16.205 20.638-.635 8.341c.909 0 1.302-.364 1.774-.802l4.261-3.801 8.829 6.036c1.619.843 2.76.399 3.197-1.391l5.797-25.352c.514-2.235-.866-3.108-2.443-2.56L2.92 13.284c-2.325.842-2.29 2.052-.395 2.601l8.709 2.529L31.463 6.597c.952-.589 1.818-.263 1.106.326L16.205 20.64z"/>
    </symbol>
    <symbol id="icon-vector" viewBox="0 0 32 32">
      <path  d="M15.999.847C7.728.847.94 7.636.94 15.909c0 7.06 4.953 13.473 11.529 15.062v-4.983c-.652.143-1.251.147-1.915-.049-.89-.263-1.613-.856-2.15-1.76-.342-.577-.949-1.203-1.581-1.157l-.155-1.758c1.368-.117 2.551.834 3.254 2.014.312.525.671.833 1.132.969.446.131.924.068 1.481-.129.14-1.116.651-1.534 1.037-2.123v-.001c-3.922-.585-5.486-2.667-6.106-4.309-.822-2.181-.381-4.907 1.073-6.629.028-.034.079-.121.059-.183-.667-2.014.146-3.68.176-3.857.769.228.894-.229 3.342 1.258l.423.254c.177.105.121.045.298.032a12.77 12.77 0 0 1 3.16-.445 12.84 12.84 0 0 1 3.204.456l.137.014c-.012-.002.037-.009.12-.058 3.057-1.852 2.947-1.247 3.767-1.513.03.177.831 1.87.172 3.859-.089.274 2.651 2.783 1.132 6.811-.62 1.644-2.183 3.725-6.106 4.31v.001c.503.767 1.107 1.174 1.104 2.756v6.22c6.577-1.589 11.529-8.003 11.529-15.062 0-8.273-6.788-15.062-15.059-15.062z"/>
    </symbol>
    <symbol id="icon-chevron-right" viewBox="0 0 19 28">
<path d="M17.297 13.703l-11.594 11.594c-0.391 0.391-1.016 0.391-1.406 0l-2.594-2.594c-0.391-0.391-0.391-1.016 0-1.406l8.297-8.297-8.297-8.297c-0.391-0.391-0.391-1.016 0-1.406l2.594-2.594c0.391-0.391 1.016-0.391 1.406 0l11.594 11.594c0.391 0.391 0.391 1.016 0 1.406z"></path>
</symbol>
    <symbol id="icon-Frame-32" viewBox="0 0 32 32">
      <path stroke-linejoin="round" stroke-linecap="round" stroke-width="5.333" d="M10.667 5.333 23.863 16 10.667 26.667"/>
    </symbol>

    <symbol id="icon-off" viewBox="0 0 32 32">
<path d="M32 3.223l-3.223-3.223-12.777 12.777-12.777-12.777-3.223 3.223 12.777 12.777-12.777 12.777 3.223 3.223 12.777-12.777 12.777 12.777 3.223-3.223-12.777-12.777 12.777-12.777z"></path>
</symbol>
  <symbol id="icon-header-menu-close" viewBox="0 0 32 32">
     <path fill="#fcfcfc" style="fill: var(--color1, #fcfcfc)" d="M23.884 6.706l-7.884 7.884-7.884-7.884c-0.19-0.174-0.439-0.267-0.696-0.261s-0.502 0.11-0.684 0.292c-0.182 0.182-0.286 0.427-0.292 0.684s0.088 0.506 0.261 0.696l7.88 7.884-7.882 7.882c-0.096 0.092-0.173 0.202-0.226 0.324s-0.081 0.253-0.083 0.386 0.023 0.265 0.073 0.388c0.050 0.123 0.124 0.235 0.218 0.329s0.206 0.169 0.329 0.219 0.255 0.075 0.388 0.074c0.133-0.002 0.264-0.029 0.386-0.082s0.232-0.13 0.324-0.226l7.886-7.882 7.884 7.884c0.19 0.174 0.439 0.267 0.696 0.262s0.502-0.11 0.684-0.292c0.182-0.182 0.286-0.427 0.292-0.684s-0.088-0.506-0.262-0.696l-7.884-7.884 7.884-7.886c0.096-0.092 0.173-0.202 0.226-0.324s0.081-0.253 0.083-0.386c0.002-0.133-0.023-0.265-0.073-0.388s-0.124-0.235-0.218-0.329c-0.094-0.094-0.206-0.169-0.329-0.219s-0.255-0.075-0.388-0.074-0.264 0.029-0.386 0.082c-0.122 0.053-0.232 0.13-0.324 0.226v0.002z"></path>
    </symbol>
    <symbol id="icon-header-menu-open" viewBox="0 0 32 32">
     <path fill="none" stroke="#fff" style="stroke: var(--color2, #fff)" stroke-linejoin="miter" stroke-linecap="round" stroke-miterlimit="4" stroke-width="2" d="M6 10h20"></path>
     <path fill="none" stroke="#fff" style="stroke: var(--color2, #fff)" stroke-linejoin="miter" stroke-linecap="round" stroke-miterlimit="4" stroke-width="2" d="M6 16h20"></path>
     <path fill="none" stroke="#fff" style="stroke: var(--color2, #fff)" stroke-linejoin="miter" stroke-linecap="round" stroke-miterlimit="4" stroke-width="2" d="M6 22h20"></path>
    </symbol>
  </defs>
</svg>
